<svg width="24" height="24" viewBox="0 0 24 24" fill="none" xmlns="http://www.w3.org/2000/svg">
<path d="M10.9052 3.79718L10.9052 5.69562C10.9052 5.80343 10.952 5.90656 11.0341 5.97921L16.9474 11.1097L3.74969 11.1097C3.64657 11.1097 3.56219 11.1941 3.56219 11.2972L3.56219 12.7034C3.56219 12.8066 3.64657 12.8909 3.74969 12.8909L16.9474 12.8909L11.0341 18.0214C10.952 18.0917 10.9052 18.1948 10.9052 18.305L10.9052 20.2034C10.9052 20.3628 11.095 20.4495 11.2145 20.3441L20.1794 12.5652C20.2605 12.4948 20.3256 12.4079 20.3701 12.3102C20.4147 12.2126 20.4378 12.1065 20.4378 11.9991C20.4378 11.8918 20.4147 11.7857 20.3701 11.688C20.3256 11.5904 20.2605 11.5034 20.1794 11.4331L11.2145 3.65656C11.0927 3.55109 10.9052 3.63781 10.9052 3.79718Z" fill="#373B52"/>
</svg>
