<svg width="36" height="36" viewBox="0 0 36 36" fill="none" xmlns="http://www.w3.org/2000/svg">
<circle cx="18" cy="18" r="18" fill="#CCCCCC"/>
<path d="M8 12C8 10.9391 8.42143 9.92172 9.17157 9.17157C9.92172 8.42143 10.9391 8 12 8H24C25.0609 8 26.0783 8.42143 26.8284 9.17157C27.5786 9.92172 28 10.9391 28 12V24C28 25.0609 27.5786 26.0783 26.8284 26.8284C26.0783 27.5786 25.0609 28 24 28H12C10.9391 28 9.92172 27.5786 9.17157 26.8284C8.42143 26.0783 8 25.0609 8 24V12Z" stroke="white" stroke-width="1.5" stroke-linecap="round" stroke-linejoin="round"/>
<path d="M14.5 17C15.8807 17 17 15.8807 17 14.5C17 13.1193 15.8807 12 14.5 12C13.1193 12 12 13.1193 12 14.5C12 15.8807 13.1193 17 14.5 17Z" stroke="white" stroke-width="1.5" stroke-linecap="round" stroke-linejoin="round"/>
<path d="M20.526 18.621L12 28H24.133C25.1586 28 26.1422 27.5926 26.8674 26.8674C27.5926 26.1422 28 25.1586 28 24.133V24C28 23.534 27.825 23.355 27.51 23.01L23.48 18.615C23.2922 18.4101 23.0637 18.2466 22.8092 18.135C22.5546 18.0233 22.2796 17.9659 22.0017 17.9665C21.7237 17.9671 21.449 18.0256 21.1949 18.1383C20.9408 18.2509 20.713 18.4154 20.526 18.621Z" stroke="white" stroke-width="1.5" stroke-linecap="round" stroke-linejoin="round"/>
</svg>
