<svg width="14" height="14" viewBox="0 0 14 14" fill="none" xmlns="http://www.w3.org/2000/svg">
<mask id="mask0_1840_1696" style="mask-type:luminance" maskUnits="userSpaceOnUse" x="1" y="1" width="13" height="13">
<path fill-rule="evenodd" clip-rule="evenodd" d="M13.6626 12.9858L9.66775 8.99096C10.3614 8.147 10.7778 7.06657 10.7778 5.88889C10.7778 3.18883 8.58895 1 5.88889 1C3.18883 1 1 3.18883 1 5.88889C1 8.58895 3.18883 10.7778 5.88889 10.7778C7.0912 10.7778 8.19213 10.3438 9.04359 9.62388L13.0341 13.6144C13.2076 13.7879 13.489 13.7879 13.6626 13.6144C13.8362 13.4408 13.8362 13.1594 13.6626 12.9858ZM9.88889 5.88889C9.88889 8.09803 8.09803 9.88889 5.88889 9.88889C3.67975 9.88889 1.88889 8.09803 1.88889 5.88889C1.88889 3.67975 3.67975 1.88889 5.88889 1.88889C8.09803 1.88889 9.88889 3.67975 9.88889 5.88889Z" fill="white"/>
</mask>
<g mask="url(#mask0_1840_1696)">
<rect x="-0.555664" y="-0.58786" width="16" height="16" fill="#696D80"/>
</g>
</svg>
