<svg width="16" height="16" viewBox="0 0 16 16" fill="none" xmlns="http://www.w3.org/2000/svg">
<path fill-rule="evenodd" clip-rule="evenodd" d="M0.888672 8C0.888672 11.9274 4.07242 15.1111 7.99978 15.1111C11.9271 15.1111 15.1109 11.9274 15.1109 8C15.1109 4.07264 11.9271 0.888885 7.99978 0.888885C4.07242 0.888885 0.888672 4.07264 0.888672 8ZM14.222 8C14.222 11.4364 11.4362 14.2222 7.99978 14.2222C4.56334 14.2222 1.77756 11.4364 1.77756 8C1.77756 4.56356 4.56334 1.77777 7.99978 1.77777C11.4362 1.77777 14.222 4.56356 14.222 8ZM8.44423 11.1111H8.88867C9.13413 11.1111 9.33312 11.3101 9.33312 11.5556C9.33312 11.801 9.13413 12 8.88867 12H7.11089C6.86543 12 6.66645 11.801 6.66645 11.5556C6.66645 11.3101 6.86543 11.1111 7.11089 11.1111H7.55534V7.11111H7.33312C7.08766 7.11111 6.88867 6.91212 6.88867 6.66666C6.88867 6.4212 7.08766 6.22222 7.33312 6.22222H7.99978C8.24524 6.22222 8.44423 6.4212 8.44423 6.66666V11.1111ZM7.99978 5.33333C8.36797 5.33333 8.66645 5.03485 8.66645 4.66666C8.66645 4.29847 8.36797 4 7.99978 4C7.63159 4 7.33312 4.29847 7.33312 4.66666C7.33312 5.03485 7.63159 5.33333 7.99978 5.33333Z" fill="#969799"/>
</svg>
