<svg width="16" height="16" viewBox="0 0 16 16" fill="none" xmlns="http://www.w3.org/2000/svg">
<g clip-path="url(#clip0_1840_1667)">
<path d="M9.52 1.33333C9.79984 1.3334 10.0726 1.42152 10.2995 1.5852C10.5265 1.74888 10.6962 1.97983 10.7847 2.24533L11.1467 3.33333H13.3333C13.5101 3.33333 13.6797 3.40357 13.8047 3.52859C13.9298 3.65361 14 3.82318 14 3.99999C14 4.17681 13.9298 4.34637 13.8047 4.4714C13.6797 4.59642 13.5101 4.66666 13.3333 4.66666L13.3313 4.71399L12.7533 12.8093C12.7173 13.3137 12.4915 13.7858 12.1214 14.1304C11.7513 14.475 11.2644 14.6666 10.7587 14.6667H5.24133C4.73564 14.6666 4.24874 14.475 3.87864 14.1304C3.50855 13.7858 3.28274 13.3137 3.24667 12.8093L2.66867 4.71333C2.66746 4.6978 2.66679 4.68224 2.66667 4.66666C2.48986 4.66666 2.32029 4.59642 2.19526 4.4714C2.07024 4.34637 2 4.17681 2 3.99999C2 3.82318 2.07024 3.65361 2.19526 3.52859C2.32029 3.40357 2.48986 3.33333 2.66667 3.33333H4.85333L5.21533 2.24533C5.3038 1.97972 5.47362 1.7487 5.70073 1.585C5.92784 1.42131 6.20071 1.33326 6.48067 1.33333H9.52ZM11.998 4.66666H4.002L4.57667 12.714C4.58863 12.8821 4.66385 13.0395 4.78717 13.1544C4.9105 13.2693 5.07277 13.3332 5.24133 13.3333H10.7587C10.9272 13.3332 11.0895 13.2693 11.2128 13.1544C11.3362 13.0395 11.4114 12.8821 11.4233 12.714L11.998 4.66666ZM6.66667 6.66666C6.82996 6.66668 6.98756 6.72663 7.10958 6.83514C7.23161 6.94364 7.30956 7.09316 7.32867 7.25533L7.33333 7.33333V10.6667C7.33315 10.8366 7.26808 11 7.15143 11.1236C7.03479 11.2471 6.87536 11.3215 6.70574 11.3314C6.53611 11.3414 6.36908 11.2862 6.23878 11.1772C6.10848 11.0681 6.02474 10.9134 6.00467 10.7447L6 10.6667V7.33333C6 7.15652 6.07024 6.98695 6.19526 6.86192C6.32029 6.7369 6.48986 6.66666 6.66667 6.66666ZM9.33333 6.66666C9.51014 6.66666 9.67971 6.7369 9.80474 6.86192C9.92976 6.98695 10 7.15652 10 7.33333V10.6667C10 10.8435 9.92976 11.013 9.80474 11.1381C9.67971 11.2631 9.51014 11.3333 9.33333 11.3333C9.15652 11.3333 8.98695 11.2631 8.86193 11.1381C8.73691 11.013 8.66667 10.8435 8.66667 10.6667V7.33333C8.66667 7.15652 8.73691 6.98695 8.86193 6.86192C8.98695 6.7369 9.15652 6.66666 9.33333 6.66666ZM9.52 2.66666H6.48L6.258 3.33333H9.742L9.52 2.66666Z" fill="#9E9EA5"/>
</g>
<defs>
<clipPath id="clip0_1840_1667">
<rect width="16" height="16" fill="white"/>
</clipPath>
</defs>
</svg>
