<svg width="28" height="28" viewBox="0 0 28 28" fill="none" xmlns="http://www.w3.org/2000/svg">
<path d="M18.4624 9.43111H19.7787C20.1942 9.43111 20.531 9.12255 20.531 8.74203V4.77972C20.531 4.3992 20.1942 4.09064 19.7787 4.09064H18.4624C18.0469 4.09064 17.7101 4.3992 17.7101 4.77972V5.85651H15.1907V5.5239C15.1907 5.50301 15.1863 5.48333 15.1845 5.46297C15.4777 5.43313 15.7075 5.18855 15.7075 4.88743C15.7075 4.56622 15.447 4.30601 15.126 4.30601H12.0252C11.7041 4.30601 11.4437 4.56622 11.4437 4.88743C11.4437 5.20322 11.6957 5.45872 12.0093 5.46715C12.0077 5.48616 12.0036 5.50453 12.0036 5.5239V5.85651H9.4626V4.77972C9.4626 4.3992 9.12573 4.09064 8.71021 4.09064H7.39399C6.97847 4.09064 6.6416 4.3992 6.6416 4.77972V8.74203C6.6416 9.12255 6.97847 9.43111 7.39399 9.43111H8.71021C9.12573 9.43111 9.4626 9.12255 9.4626 8.74203V7.19152H12.0036V7.55673C11.6571 7.75592 11.4437 8.02027 11.4437 8.31133C11.4437 8.72433 11.8707 9.08416 12.5043 9.27831V11.9721H13.1584V20.5857H9.4626V19.5953C9.4626 19.2148 9.12573 18.9062 8.71021 18.9062H7.39399C6.97847 18.9062 6.6416 19.2148 6.6416 19.5953V23.5575C6.6416 23.9382 6.97847 24.2467 7.39399 24.2467H8.71021C9.12573 24.2467 9.4626 23.9381 9.4626 23.5575V22.3517H17.7101V23.5575C17.7101 23.9382 18.0469 24.2467 18.4624 24.2467H19.7787C20.1942 24.2467 20.531 23.9381 20.531 23.5575V19.5953C20.531 19.2148 20.1942 18.9062 19.7787 18.9062H18.4624C18.0469 18.9062 17.7101 19.2148 17.7101 19.5953V20.5857H13.9766V11.9721H14.6308V9.28355C15.2734 9.09063 15.7075 8.72783 15.7075 8.31133C15.7075 8.03242 15.5119 7.7779 15.1907 7.58168V7.19152H17.7101V8.74203C17.7101 9.12255 18.0469 9.43111 18.4624 9.43111Z" fill="#5D5D5D"/>
</svg>
