<svg width="36" height="36" viewBox="0 0 36 36" fill="none" xmlns="http://www.w3.org/2000/svg">
<circle cx="18" cy="18" r="18" fill="#CCCCCC"/>
<path fill-rule="evenodd" clip-rule="evenodd" d="M22.26 7.87421C22.2766 7.77709 22.3121 7.68418 22.3646 7.6008C22.4171 7.51742 22.4856 7.4452 22.566 7.38828C22.6464 7.33135 22.7373 7.29083 22.8334 7.26903C22.9294 7.24722 23.0289 7.24457 23.126 7.26121C26.326 7.80521 28.75 10.6212 28.75 14.0012C28.7498 14.1373 28.7125 14.2707 28.6423 14.3872C28.572 14.5037 28.4714 14.5988 28.3512 14.6625C28.231 14.7262 28.0957 14.7561 27.9599 14.7488C27.824 14.7415 27.6927 14.6974 27.58 14.6212L26.08 13.6072C25.9954 13.5534 25.9224 13.4832 25.8653 13.4007C25.8083 13.3182 25.7684 13.2251 25.748 13.1269C25.7275 13.0287 25.727 12.9274 25.7464 12.829C25.7659 12.7306 25.8048 12.6371 25.861 12.554C25.9172 12.471 25.9895 12.4 26.0736 12.3453C26.1577 12.2907 26.2519 12.2535 26.3506 12.2359C26.4493 12.2183 26.5506 12.2206 26.6484 12.2428C26.7462 12.2651 26.8386 12.3067 26.92 12.3652L27.02 12.4322C26.443 10.5222 24.84 9.07421 22.874 8.73921C22.678 8.70571 22.5034 8.59579 22.3885 8.43359C22.2735 8.27139 22.2267 8.0702 22.26 7.87421ZM14.319 9.31621C13.74 9.75821 13.062 10.4342 12.087 11.4082L11.409 12.0872C10.435 13.0612 9.759 13.7392 9.317 14.3192C8.888 14.8802 8.751 15.2602 8.751 15.6262C8.751 15.9922 8.888 16.3722 9.317 16.9342C9.759 17.5132 10.435 18.1912 11.409 19.1662L16.836 24.5922C17.81 25.5662 18.488 26.2422 19.067 26.6842C19.63 27.1142 20.009 27.2502 20.375 27.2502C20.741 27.2502 21.121 27.1132 21.683 26.6842C22.262 26.2422 22.94 25.5662 23.915 24.5922L24.593 23.9142C25.567 22.9392 26.243 22.2612 26.685 21.6822C27.114 21.1202 27.251 20.7402 27.251 20.3742C27.251 20.0082 27.114 19.6292 26.685 19.0672C26.243 18.4872 25.567 17.8092 24.593 16.8352L19.166 11.4082C18.192 10.4342 17.514 9.75821 16.935 9.31621C16.372 8.88721 15.993 8.75021 15.627 8.75021C15.261 8.75021 14.881 8.88721 14.319 9.31621ZM13.409 8.12321C14.105 7.59321 14.801 7.25021 15.627 7.25021C16.453 7.25021 17.149 7.59321 17.844 8.12321C18.514 8.63321 19.262 9.38321 20.189 10.3092L25.692 15.8132C26.619 16.7392 27.368 17.4882 27.878 18.1572C28.408 18.8522 28.751 19.5482 28.751 20.3742C28.751 21.2002 28.408 21.8962 27.878 22.5922C27.368 23.2602 26.618 24.0092 25.692 24.9362L24.937 25.6912C24.01 26.6182 23.261 27.3672 22.592 27.8772C21.897 28.4072 21.201 28.7502 20.375 28.7502C19.549 28.7502 18.853 28.4072 18.158 27.8772C17.488 27.3672 16.74 26.6172 15.814 25.6912L10.31 20.1882C9.383 19.2612 8.634 18.5122 8.124 17.8432C7.594 17.1482 7.251 16.4522 7.251 15.6262C7.251 14.8002 7.594 14.1042 8.124 13.4092C8.634 12.7392 9.384 11.9912 10.31 11.0652L11.065 10.3092C11.992 9.38321 12.74 8.63421 13.409 8.12321ZM15.479 11.0262C15.6195 11.1668 15.6983 11.3575 15.6983 11.5562C15.6983 11.755 15.6195 11.9456 15.479 12.0862L12.086 15.4792C12.0173 15.5529 11.9345 15.612 11.8425 15.653C11.7505 15.694 11.6512 15.716 11.5505 15.7178C11.4498 15.7196 11.3498 15.7011 11.2564 15.6633C11.163 15.6256 11.0782 15.5695 11.007 15.4983C10.9357 15.427 10.8796 15.3422 10.8419 15.2488C10.8042 15.1554 10.7856 15.0554 10.7874 14.9547C10.7892 14.854 10.8112 14.7547 10.8522 14.6627C10.8932 14.5707 10.9523 14.4879 11.026 14.4192L14.417 11.0272C14.5576 10.8868 14.7483 10.8079 14.947 10.8079C15.1458 10.8079 15.3364 10.8868 15.477 11.0272L15.479 11.0262ZM22.219 21.2442C22.1557 21.1772 22.0797 21.1236 21.9953 21.0866C21.911 21.0495 21.8201 21.0298 21.728 21.0284C21.6358 21.0271 21.5444 21.0443 21.459 21.079C21.3737 21.1136 21.2961 21.165 21.231 21.2302C21.1658 21.2953 21.1144 21.3729 21.0798 21.4582C21.0451 21.5436 21.0279 21.635 21.0292 21.7272C21.0305 21.8193 21.0503 21.9102 21.0874 21.9945C21.1244 22.0789 21.178 22.1549 21.245 22.2182C21.3754 22.3414 21.5486 22.4089 21.728 22.4063C21.9073 22.4038 22.0785 22.3314 22.2054 22.2046C22.3322 22.0778 22.4045 21.9065 22.4071 21.7272C22.4096 21.5478 22.3422 21.3746 22.219 21.2442ZM20.184 20.1842C20.3863 19.977 20.6278 19.812 20.8944 19.6988C21.161 19.5855 21.4473 19.5263 21.737 19.5246C22.0266 19.5228 22.3137 19.5786 22.5816 19.6886C22.8495 19.7986 23.093 19.9607 23.2978 20.1654C23.5026 20.3702 23.6648 20.6136 23.7749 20.8815C23.885 21.1493 23.9408 21.4364 23.9391 21.726C23.9375 22.0157 23.8784 22.3021 23.7652 22.5687C23.6521 22.8353 23.4872 23.0768 23.28 23.2792C23.0767 23.4825 22.8354 23.6438 22.5698 23.7538C22.3042 23.8638 22.0195 23.9204 21.732 23.9204C21.1514 23.9204 20.5946 23.6898 20.184 23.2792C19.9807 23.0759 19.8195 22.8346 19.7094 22.569C19.5994 22.3034 19.5428 22.0187 19.5428 21.7312C19.5428 21.1506 19.7734 20.5938 20.184 20.1832V20.1842ZM7.648 21.3372C7.76819 21.2732 7.90354 21.243 8.03955 21.2501C8.17556 21.2571 8.30708 21.3011 8.42 21.3772L9.92 22.3922C10.0785 22.5061 10.1863 22.6774 10.2206 22.8696C10.2549 23.0617 10.2129 23.2597 10.1035 23.4214C9.99415 23.5831 9.82606 23.6958 9.63494 23.7355C9.44383 23.7752 9.24475 23.7389 9.08 23.6342L8.98 23.5672C9.557 25.4772 11.16 26.9252 13.126 27.2602C13.2231 27.2768 13.316 27.3123 13.3994 27.3647C13.4828 27.4172 13.555 27.4855 13.612 27.5659C13.669 27.6463 13.7096 27.7371 13.7314 27.8331C13.7533 27.9292 13.756 28.0286 13.7395 28.1257C13.723 28.2228 13.6874 28.3157 13.635 28.3991C13.5825 28.4825 13.5142 28.5547 13.4338 28.6117C13.3534 28.6687 13.2626 28.7093 13.1666 28.7311C13.0705 28.753 12.9711 28.7558 12.874 28.7392C9.674 28.1942 7.25 25.3782 7.25 21.9992C7.25005 21.8631 7.28711 21.7297 7.35722 21.613C7.42733 21.4964 7.52785 21.4011 7.648 21.3372Z" fill="white"/>
</svg>
